# xmcd
#
# Track frame offsets:
#	150
#	16736
#	31759
#	50585
#	64012
#	82777
#	101528
#	117805
#	126524
#	144375
#	160063
#	177008
#	201460
#
# Disc length: 2720 seconds
#
# Revision: 0
# Processed by: cddbd v1.5.1PL0 Copyright (c) Steve Scherf et al.
# Submitted via: audiograbber 1.83.01
#
DISCID=a20a9e0d
DTITLE=Perfect Combination - Conquer
DYEAR=2005
DGENRE=Hip-Hop
TTITLE0=Conquer
TTITLE1=Better Than You
TTITLE2=Stray
TTITLE3=Shake Your Butt
TTITLE4=In God's Name (featuring MC Justice)
TTITLE5=Too Strong
TTITLE6=Letters From Hell
TTITLE7=The Passion Of The Antichrist
TTITLE8=Do The Math (featuring K-Skills)
TTITLE9=Everyday Destruction (featuring Akem)
TTITLE10=The Island
TTITLE11=Someone Like You (featuring MC Tia, Mazy and Akem)
TTITLE12=Outro
EXTD=
EXTT0=
EXTT1=
EXTT2=
EXTT3=
EXTT4=
EXTT5=
EXTT6=
EXTT7=
EXTT8=
EXTT9=
EXTT10=
EXTT11=
EXTT12=
PLAYORDER=
